<svg width="20" height="20" viewBox="0 0 20 20" fill="none" xmlns="http://www.w3.org/2000/svg">
<g filter="url(#filter0_i_6_19)">
<g clip-path="url(#clip0_6_19)">
<rect x="2" y="2" width="16" height="16" rx="1" fill="url(#paint0_linear_6_19)"/>
<path fill-rule="evenodd" clip-rule="evenodd" d="M19.875 0.125L18.125 0.125V1.875H19.875V0.125ZM19.875 2.125H18.125V3.875H19.875V2.125ZM19.875 4.125H18.125V5.875H19.875V4.125ZM19.875 6.125H18.125V7.875H19.875V6.125ZM19.875 8.125H18.125V9.875H19.875V8.125ZM19.875 10.125H18.125V11.875H19.875V10.125ZM19.875 12.125H18.125V13.875H19.875V12.125ZM19.875 14.125H18.125V15.875H19.875V14.125ZM19.875 16.125H18.125V17.875H19.875V16.125ZM19.875 18.125H18.125V19.875H19.875V18.125ZM20 20V20.125H4.76837e-07V20H-0.125L-0.125 -5.21541e-07L4.76837e-07 -5.1409e-07V-0.125L20 -0.125V2.92063e-06H20.125V20H20ZM0.125 0.125L0.125 1.875H1.87499L1.87499 0.125L0.125 0.125ZM2.12499 0.125V1.875H3.87499V0.125L2.12499 0.125ZM4.12499 0.125V1.875H5.87499V0.125L4.12499 0.125ZM6.12499 0.125V1.875H7.87499V0.125L6.12499 0.125ZM8.12499 0.125V1.875H9.87499V0.125L8.12499 0.125ZM10.125 0.125V1.875H11.875V0.125L10.125 0.125ZM12.125 0.125V1.875H13.875V0.125L12.125 0.125ZM14.125 0.125V1.875H15.875V0.125L14.125 0.125ZM16.125 0.125V1.875H17.875V0.125L16.125 0.125ZM17.875 2.125H16.125V3.875H17.875V2.125ZM17.875 4.125H16.125V5.875H17.875V4.125ZM17.875 6.125H16.125V7.875H17.875V6.125ZM17.875 8.125H16.125V9.875H17.875V8.125ZM17.875 10.125H16.125V11.875H17.875V10.125ZM17.875 12.125H16.125V13.875H17.875V12.125ZM17.875 14.125H16.125V15.875H17.875V14.125ZM17.875 16.125H16.125V17.875H17.875V16.125ZM17.875 18.125H16.125V19.875H17.875V18.125ZM15.875 19.875V18.125H14.125V19.875H15.875ZM13.875 19.875V18.125H12.125V19.875H13.875ZM11.875 19.875V18.125H10.125V19.875H11.875ZM9.87499 19.875V18.125H8.12499V19.875H9.87499ZM7.87499 19.875V18.125H6.12499V19.875H7.87499ZM5.87499 19.875V18.125H4.12499V19.875H5.87499ZM3.87499 19.875V18.125H2.12499V19.875H3.87499ZM1.87499 19.875L1.87499 18.125H0.124999L0.124999 19.875H1.87499ZM0.124999 17.875H1.87499V16.125H0.124999L0.124999 17.875ZM0.124999 15.875H1.87499L1.87499 14.125H0.124999L0.124999 15.875ZM0.124999 13.875H1.87499L1.87499 12.125H0.124999L0.124999 13.875ZM0.124999 11.875H1.87499L1.87499 10.125H0.125L0.124999 11.875ZM0.125 9.875H1.87499V8.125H0.125L0.125 9.875ZM0.125 7.875H1.87499L1.87499 6.125H0.125L0.125 7.875ZM0.125 5.875H1.87499L1.87499 4.125H0.125L0.125 5.875ZM0.125 3.875H1.87499V2.125H0.125L0.125 3.875ZM2.12499 2.125L2.12499 3.875H3.87499L3.87499 2.125H2.12499ZM4.12499 2.125V3.875H5.87499V2.125H4.12499ZM6.12499 2.125V3.875H7.87499V2.125H6.12499ZM8.12499 2.125V3.875H9.87499V2.125H8.12499ZM10.125 2.125V3.875H11.875V2.125H10.125ZM12.125 2.125V3.875H13.875V2.125H12.125ZM14.125 2.125V3.875H15.875V2.125H14.125ZM15.875 4.125H14.125V5.875H15.875V4.125ZM15.875 6.125H14.125V7.875H15.875V6.125ZM15.875 8.125H14.125V9.875H15.875V8.125ZM15.875 10.125H14.125V11.875H15.875V10.125ZM15.875 12.125H14.125V13.875H15.875V12.125ZM15.875 14.125H14.125V15.875H15.875V14.125ZM15.875 16.125H14.125V17.875H15.875V16.125ZM13.875 17.875V16.125H12.125V17.875H13.875ZM11.875 17.875V16.125H10.125V17.875H11.875ZM9.87499 17.875V16.125H8.12499V17.875H9.87499ZM7.87499 17.875V16.125H6.12499V17.875H7.87499ZM5.87499 17.875V16.125H4.12499V17.875H5.87499ZM3.87499 17.875L3.87499 16.125H2.12499L2.12499 17.875H3.87499ZM2.12499 15.875H3.87499V14.125H2.12499V15.875ZM2.12499 13.875H3.87499L3.87499 12.125H2.12499L2.12499 13.875ZM2.12499 11.875H3.87499V10.125H2.12499V11.875ZM2.12499 9.875H3.87499V8.125H2.12499V9.875ZM2.12499 7.875H3.87499L3.87499 6.125H2.12499L2.12499 7.875ZM2.12499 5.875H3.87499V4.125H2.12499V5.875ZM4.12499 4.125L4.12499 5.875H5.87499L5.87499 4.125H4.12499ZM6.12499 4.125L6.12499 5.875H7.87499L7.87499 4.125H6.12499ZM8.12499 4.125V5.875H9.87499V4.125H8.12499ZM10.125 4.125V5.875H11.875V4.125H10.125ZM12.125 4.125V5.875H13.875V4.125H12.125ZM13.875 6.125H12.125V7.875H13.875V6.125ZM13.875 8.125H12.125V9.875H13.875V8.125ZM13.875 10.125H12.125V11.875H13.875V10.125ZM13.875 12.125H12.125V13.875H13.875V12.125ZM13.875 14.125H12.125V15.875H13.875V14.125ZM11.875 15.875V14.125H10.125V15.875H11.875ZM9.87499 15.875V14.125H8.12499V15.875H9.87499ZM7.87499 15.875L7.87499 14.125H6.12499L6.12499 15.875H7.87499ZM5.87499 15.875L5.87499 14.125H4.12499L4.12499 15.875H5.87499ZM4.12499 13.875H5.87499V12.125H4.12499V13.875ZM4.12499 11.875H5.87499V10.125H4.12499V11.875ZM4.12499 9.875H5.87499V8.125H4.12499V9.875ZM4.12499 7.875H5.87499V6.125H4.12499V7.875ZM6.12499 6.125V7.875H7.87499V6.125H6.12499ZM8.12499 6.125V7.875H9.87499V6.125H8.12499ZM10.125 6.125V7.875H11.875V6.125H10.125ZM11.875 8.125H10.125V9.875H11.875V8.125ZM11.875 10.125H10.125V11.875H11.875V10.125ZM11.875 12.125H10.125V13.875H11.875V12.125ZM9.87499 13.875V12.125H8.12499V13.875H9.87499ZM7.87499 13.875V12.125H6.12499V13.875H7.87499ZM6.12499 11.875H7.87499V10.125H6.12499V11.875ZM6.12499 9.875H7.87499V8.125H6.12499V9.875ZM8.12499 8.125V9.875H9.87499V8.125H8.12499ZM9.87499 10.125H8.12499V11.875H9.87499V10.125Z" fill="url(#paint1_linear_6_19)" fill-opacity="0.05"/>
<g filter="url(#filter1_di_6_19)">
<path fill-rule="evenodd" clip-rule="evenodd" d="M13.375 6.25C14.2725 6.25 15 5.52246 15 4.625C15 4.4376 14.9683 4.2576 14.9099 4.09009C15.5446 4.31125 16 4.91494 16 5.625C16 6.52246 15.2725 7.25 14.375 7.25C13.6649 7.25 13.0613 6.79458 12.8401 6.15991C13.0076 6.21828 13.1876 6.25 13.375 6.25Z" fill="white"/>
</g>
<g filter="url(#filter2_di_6_19)">
<path d="M6.625 15.54V16H4.49219V15.54H6.625ZM4.60352 11.7344V16H4.03809V11.7344H4.60352ZM9.00098 15.2676V12.8301H9.5459V16H9.02734L9.00098 15.2676ZM9.10352 14.5996L9.3291 14.5938C9.3291 14.8047 9.30664 15 9.26172 15.1797C9.21875 15.3574 9.14844 15.5117 9.05078 15.6426C8.95312 15.7734 8.8252 15.876 8.66699 15.9502C8.50879 16.0225 8.31641 16.0586 8.08984 16.0586C7.93555 16.0586 7.79395 16.0361 7.66504 15.9912C7.53809 15.9463 7.42871 15.877 7.33691 15.7832C7.24512 15.6895 7.17383 15.5674 7.12305 15.417C7.07422 15.2666 7.0498 15.0859 7.0498 14.875V12.8301H7.5918V14.8809C7.5918 15.0234 7.60742 15.1416 7.63867 15.2354C7.67188 15.3271 7.71582 15.4004 7.77051 15.4551C7.82715 15.5078 7.88965 15.5449 7.95801 15.5664C8.02832 15.5879 8.10059 15.5986 8.1748 15.5986C8.40527 15.5986 8.58789 15.5547 8.72266 15.4668C8.85742 15.377 8.9541 15.2568 9.0127 15.1064C9.07324 14.9541 9.10352 14.7852 9.10352 14.5996ZM10.9141 13.5068V16H10.3721V12.8301H10.8848L10.9141 13.5068ZM10.7852 14.2949L10.5596 14.2861C10.5615 14.0693 10.5938 13.8691 10.6562 13.6855C10.7188 13.5 10.8066 13.3389 10.9199 13.2021C11.0332 13.0654 11.168 12.96 11.3242 12.8857C11.4824 12.8096 11.6572 12.7715 11.8486 12.7715C12.0049 12.7715 12.1455 12.793 12.2705 12.8359C12.3955 12.877 12.502 12.9434 12.5898 13.0352C12.6797 13.127 12.748 13.2461 12.7949 13.3926C12.8418 13.5371 12.8652 13.7139 12.8652 13.9229V16H12.3203V13.917C12.3203 13.751 12.2959 13.6182 12.2471 13.5186C12.1982 13.417 12.127 13.3438 12.0332 13.2988C11.9395 13.252 11.8242 13.2285 11.6875 13.2285C11.5527 13.2285 11.4297 13.2568 11.3184 13.3135C11.209 13.3701 11.1143 13.4482 11.0342 13.5479C10.9561 13.6475 10.8945 13.7617 10.8496 13.8906C10.8066 14.0176 10.7852 14.1523 10.7852 14.2949ZM15.0039 16.0586C14.7832 16.0586 14.583 16.0215 14.4033 15.9473C14.2256 15.8711 14.0723 15.7646 13.9434 15.6279C13.8164 15.4912 13.7188 15.3291 13.6504 15.1416C13.582 14.9541 13.5479 14.749 13.5479 14.5264V14.4033C13.5479 14.1455 13.5859 13.916 13.6621 13.7148C13.7383 13.5117 13.8418 13.3398 13.9727 13.1992C14.1035 13.0586 14.252 12.9521 14.418 12.8799C14.584 12.8076 14.7559 12.7715 14.9336 12.7715C15.1602 12.7715 15.3555 12.8105 15.5195 12.8887C15.6855 12.9668 15.8213 13.0762 15.9268 13.2168C16.0322 13.3555 16.1104 13.5195 16.1611 13.709C16.2119 13.8965 16.2373 14.1016 16.2373 14.3242V14.5674H13.8701V14.125H15.6953V14.084C15.6875 13.9434 15.6582 13.8066 15.6074 13.6738C15.5586 13.541 15.4805 13.4316 15.373 13.3457C15.2656 13.2598 15.1191 13.2168 14.9336 13.2168C14.8105 13.2168 14.6973 13.2432 14.5938 13.2959C14.4902 13.3467 14.4014 13.4229 14.3271 13.5244C14.2529 13.626 14.1953 13.75 14.1543 13.8965C14.1133 14.043 14.0928 14.2119 14.0928 14.4033V14.5264C14.0928 14.6768 14.1133 14.8184 14.1543 14.9512C14.1973 15.082 14.2588 15.1973 14.3389 15.2969C14.4209 15.3965 14.5195 15.4746 14.6348 15.5312C14.752 15.5879 14.8848 15.6162 15.0332 15.6162C15.2246 15.6162 15.3867 15.5771 15.5195 15.499C15.6523 15.4209 15.7686 15.3164 15.8682 15.1855L16.1963 15.4463C16.1279 15.5498 16.041 15.6484 15.9355 15.7422C15.8301 15.8359 15.7002 15.9121 15.5459 15.9707C15.3936 16.0293 15.2129 16.0586 15.0039 16.0586Z" fill="white"/>
</g>
</g>
</g>
<defs>
<filter id="filter0_i_6_19" x="2" y="1.5" width="16.5" height="16.5" filterUnits="userSpaceOnUse" color-interpolation-filters="sRGB">
<feFlood flood-opacity="0" result="BackgroundImageFix"/>
<feBlend mode="normal" in="SourceGraphic" in2="BackgroundImageFix" result="shape"/>
<feColorMatrix in="SourceAlpha" type="matrix" values="0 0 0 0 0 0 0 0 0 0 0 0 0 0 0 0 0 0 127 0" result="hardAlpha"/>
<feOffset dx="0.5" dy="-0.5"/>
<feGaussianBlur stdDeviation="0.25"/>
<feComposite in2="hardAlpha" operator="arithmetic" k2="-1" k3="1"/>
<feColorMatrix type="matrix" values="0 0 0 0 0 0 0 0 0 0 0 0 0 0 0 0 0 0 0.05 0"/>
<feBlend mode="normal" in2="shape" result="effect1_innerShadow_6_19"/>
</filter>
<filter id="filter1_di_6_19" x="10.8401" y="3.09009" width="6.15991" height="6.15991" filterUnits="userSpaceOnUse" color-interpolation-filters="sRGB">
<feFlood flood-opacity="0" result="BackgroundImageFix"/>
<feColorMatrix in="SourceAlpha" type="matrix" values="0 0 0 0 0 0 0 0 0 0 0 0 0 0 0 0 0 0 127 0" result="hardAlpha"/>
<feOffset dx="-0.5" dy="0.5"/>
<feGaussianBlur stdDeviation="0.75"/>
<feComposite in2="hardAlpha" operator="out"/>
<feColorMatrix type="matrix" values="0 0 0 0 0 0 0 0 0 0 0 0 0 0 0 0 0 0 0.15 0"/>
<feBlend mode="normal" in2="BackgroundImageFix" result="effect1_dropShadow_6_19"/>
<feBlend mode="normal" in="SourceGraphic" in2="effect1_dropShadow_6_19" result="shape"/>
<feColorMatrix in="SourceAlpha" type="matrix" values="0 0 0 0 0 0 0 0 0 0 0 0 0 0 0 0 0 0 127 0" result="hardAlpha"/>
<feOffset dx="0.25" dy="-0.25"/>
<feGaussianBlur stdDeviation="0.375"/>
<feComposite in2="hardAlpha" operator="arithmetic" k2="-1" k3="1"/>
<feColorMatrix type="matrix" values="0 0 0 0 0 0 0 0 0 0 0 0 0 0 0 0 0 0 0.15 0"/>
<feBlend mode="normal" in2="shape" result="effect2_innerShadow_6_19"/>
</filter>
<filter id="filter2_di_6_19" x="2.03809" y="10.7344" width="15.1992" height="7.32422" filterUnits="userSpaceOnUse" color-interpolation-filters="sRGB">
<feFlood flood-opacity="0" result="BackgroundImageFix"/>
<feColorMatrix in="SourceAlpha" type="matrix" values="0 0 0 0 0 0 0 0 0 0 0 0 0 0 0 0 0 0 127 0" result="hardAlpha"/>
<feOffset dx="-0.5" dy="0.5"/>
<feGaussianBlur stdDeviation="0.75"/>
<feComposite in2="hardAlpha" operator="out"/>
<feColorMatrix type="matrix" values="0 0 0 0 0 0 0 0 0 0 0 0 0 0 0 0 0 0 0.15 0"/>
<feBlend mode="normal" in2="BackgroundImageFix" result="effect1_dropShadow_6_19"/>
<feBlend mode="normal" in="SourceGraphic" in2="effect1_dropShadow_6_19" result="shape"/>
<feColorMatrix in="SourceAlpha" type="matrix" values="0 0 0 0 0 0 0 0 0 0 0 0 0 0 0 0 0 0 127 0" result="hardAlpha"/>
<feOffset dx="0.25" dy="-0.25"/>
<feGaussianBlur stdDeviation="0.375"/>
<feComposite in2="hardAlpha" operator="arithmetic" k2="-1" k3="1"/>
<feColorMatrix type="matrix" values="0 0 0 0 0 0 0 0 0 0 0 0 0 0 0 0 0 0 0.15 0"/>
<feBlend mode="normal" in2="shape" result="effect2_innerShadow_6_19"/>
</filter>
<linearGradient id="paint0_linear_6_19" x1="10" y1="2" x2="10" y2="18" gradientUnits="userSpaceOnUse">
<stop stop-color="#E168FF"/>
<stop offset="1" stop-color="#C848E9"/>
</linearGradient>
<linearGradient id="paint1_linear_6_19" x1="10" y1="-0.125" x2="10" y2="20.125" gradientUnits="userSpaceOnUse">
<stop stop-color="white" stop-opacity="0.5"/>
<stop offset="1" stop-color="white"/>
</linearGradient>
<clipPath id="clip0_6_19">
<rect x="2" y="2" width="16" height="16" rx="1" fill="white"/>
</clipPath>
</defs>
</svg>
