<svg width="20" height="20" viewBox="0 0 20 20" fill="none" xmlns="http://www.w3.org/2000/svg">
<g clip-path="url(#clip0_6_97)">
<g filter="url(#filter0_i_6_97)">
<g clip-path="url(#clip1_6_97)">
<rect x="4.34315" y="0.202042" width="16" height="16" rx="1" transform="rotate(15 4.34315 0.202042)" fill="url(#paint0_linear_6_97)"/>
<path fill-rule="evenodd" clip-rule="evenodd" d="M19.875 0.125H18.125V1.875H19.875V0.125ZM19.875 2.125H18.125V3.875H19.875V2.125ZM19.875 4.125H18.125V5.875H19.875V4.125ZM19.875 6.125H18.125V7.875H19.875V6.125ZM19.875 8.125H18.125V9.875H19.875V8.125ZM19.875 10.125H18.125V11.875H19.875V10.125ZM19.875 12.125H18.125V13.875H19.875V12.125ZM19.875 14.125H18.125V15.875H19.875V14.125ZM19.875 16.125H18.125V17.875H19.875V16.125ZM19.875 18.125H18.125V19.875H19.875V18.125ZM20 20V20.125H4.76837e-07V20H-0.125V-5.21541e-07L4.76837e-07 -5.1409e-07V-0.125H20V2.92063e-06H20.125V20H20ZM0.125 0.125L0.125 1.875H1.87499L1.87499 0.125H0.125ZM2.12499 0.125V1.875H3.87499V0.125H2.12499ZM4.12499 0.125V1.875H5.87499V0.125H4.12499ZM6.12499 0.125V1.875H7.87499V0.125H6.12499ZM8.12499 0.125V1.875H9.87499V0.125H8.12499ZM10.125 0.125V1.875H11.875V0.125H10.125ZM12.125 0.125V1.875H13.875V0.125H12.125ZM14.125 0.125V1.875H15.875V0.125H14.125ZM16.125 0.125V1.875H17.875V0.125H16.125ZM17.875 2.125H16.125V3.875H17.875V2.125ZM17.875 4.125H16.125V5.875H17.875V4.125ZM17.875 6.125H16.125V7.875H17.875V6.125ZM17.875 8.125H16.125V9.875H17.875V8.125ZM17.875 10.125H16.125V11.875H17.875V10.125ZM17.875 12.125H16.125V13.875H17.875V12.125ZM17.875 14.125H16.125V15.875H17.875V14.125ZM17.875 16.125H16.125V17.875H17.875V16.125ZM17.875 18.125H16.125V19.875H17.875V18.125ZM15.875 19.875V18.125H14.125V19.875H15.875ZM13.875 19.875V18.125H12.125V19.875H13.875ZM11.875 19.875V18.125H10.125V19.875H11.875ZM9.87499 19.875V18.125H8.12499V19.875H9.87499ZM7.87499 19.875V18.125H6.12499V19.875H7.87499ZM5.87499 19.875V18.125H4.12499V19.875H5.87499ZM3.87499 19.875V18.125H2.12499V19.875H3.87499ZM1.87499 19.875L1.87499 18.125H0.124999L0.124999 19.875H1.87499ZM0.124999 17.875H1.87499V16.125H0.124999L0.124999 17.875ZM0.124999 15.875H1.87499L1.87499 14.125H0.124999L0.124999 15.875ZM0.124999 13.875H1.87499L1.87499 12.125H0.124999L0.124999 13.875ZM0.124999 11.875H1.87499V10.125H0.125L0.124999 11.875ZM0.125 9.875H1.87499V8.125H0.125L0.125 9.875ZM0.125 7.875H1.87499L1.87499 6.125H0.125L0.125 7.875ZM0.125 5.875H1.87499L1.87499 4.125H0.125L0.125 5.875ZM0.125 3.875H1.87499V2.125H0.125L0.125 3.875ZM2.12499 2.125L2.12499 3.875H3.87499L3.87499 2.125H2.12499ZM4.12499 2.125V3.875H5.87499V2.125H4.12499ZM6.12499 2.125V3.875H7.87499V2.125H6.12499ZM8.12499 2.125V3.875H9.87499V2.125H8.12499ZM10.125 2.125V3.875H11.875V2.125H10.125ZM12.125 2.125V3.875H13.875V2.125H12.125ZM14.125 2.125V3.875H15.875V2.125H14.125ZM15.875 4.125H14.125V5.875H15.875V4.125ZM15.875 6.125H14.125V7.875H15.875V6.125ZM15.875 8.125H14.125V9.875H15.875V8.125ZM15.875 10.125H14.125V11.875H15.875V10.125ZM15.875 12.125H14.125V13.875H15.875V12.125ZM15.875 14.125H14.125V15.875H15.875V14.125ZM15.875 16.125H14.125V17.875H15.875V16.125ZM13.875 17.875V16.125H12.125V17.875H13.875ZM11.875 17.875V16.125H10.125V17.875H11.875ZM9.87499 17.875V16.125H8.12499V17.875H9.87499ZM7.87499 17.875V16.125H6.12499V17.875H7.87499ZM5.87499 17.875V16.125H4.12499V17.875H5.87499ZM3.87499 17.875L3.87499 16.125H2.12499L2.12499 17.875H3.87499ZM2.12499 15.875H3.87499V14.125H2.12499V15.875ZM2.12499 13.875H3.87499L3.87499 12.125H2.12499L2.12499 13.875ZM2.12499 11.875H3.87499V10.125H2.12499V11.875ZM2.12499 9.875H3.87499V8.125H2.12499V9.875ZM2.12499 7.875H3.87499L3.87499 6.125H2.12499L2.12499 7.875ZM2.12499 5.875H3.87499V4.125H2.12499V5.875ZM4.12499 4.125L4.12499 5.875H5.87499L5.87499 4.125H4.12499ZM6.12499 4.125L6.12499 5.875H7.87499L7.87499 4.125H6.12499ZM8.12499 4.125V5.875H9.87499V4.125H8.12499ZM10.125 4.125V5.875H11.875V4.125H10.125ZM12.125 4.125V5.875H13.875V4.125H12.125ZM13.875 6.125H12.125V7.875H13.875V6.125ZM13.875 8.125H12.125V9.875H13.875V8.125ZM13.875 10.125H12.125V11.875H13.875V10.125ZM13.875 12.125H12.125V13.875H13.875V12.125ZM13.875 14.125H12.125V15.875H13.875V14.125ZM11.875 15.875V14.125H10.125V15.875H11.875ZM9.87499 15.875V14.125H8.12499V15.875H9.87499ZM7.87499 15.875L7.87499 14.125H6.12499L6.12499 15.875H7.87499ZM5.87499 15.875L5.87499 14.125H4.12499L4.12499 15.875H5.87499ZM4.12499 13.875H5.87499V12.125H4.12499V13.875ZM4.12499 11.875H5.87499V10.125H4.12499V11.875ZM4.12499 9.875H5.87499V8.125H4.12499V9.875ZM4.12499 7.875H5.87499V6.125H4.12499V7.875ZM6.12499 6.125V7.875H7.87499V6.125H6.12499ZM8.12499 6.125V7.875H9.87499V6.125H8.12499ZM10.125 6.125V7.875H11.875V6.125H10.125ZM11.875 8.125H10.125V9.875H11.875V8.125ZM11.875 10.125H10.125V11.875H11.875V10.125ZM11.875 12.125H10.125V13.875H11.875V12.125ZM9.87499 13.875V12.125H8.12499V13.875H9.87499ZM7.87499 13.875V12.125H6.12499V13.875H7.87499ZM6.12499 11.875H7.87499V10.125H6.12499V11.875ZM6.12499 9.875H7.87499V8.125H6.12499V9.875ZM8.12499 8.125V9.875H9.87499V8.125H8.12499ZM9.87499 10.125H8.12499V11.875H9.87499V10.125Z" fill="url(#paint1_linear_6_97)" fill-opacity="0.05"/>
<g filter="url(#filter1_di_6_97)">
<path fill-rule="evenodd" clip-rule="evenodd" d="M14.2306 7.25129C15.0975 7.48357 15.9885 6.96913 16.2208 6.10224C16.2693 5.92123 16.2852 5.73915 16.2722 5.56225C16.828 5.94013 17.1117 6.64112 16.9279 7.32699C16.6956 8.19387 15.8046 8.70832 14.9377 8.47604C14.2518 8.29226 13.7866 7.69611 13.7372 7.02583C13.8839 7.12556 14.0496 7.20279 14.2306 7.25129Z" fill="white"/>
</g>
<g filter="url(#filter2_di_6_97)">
<path d="M5.30613 14.4778L5.18709 14.922L3.12695 14.37L3.24599 13.9257L5.30613 14.4778ZM4.33851 10.2786L3.23448 14.3988L2.68832 14.2525L3.79234 10.1322L4.33851 10.2786ZM7.67167 14.8295L8.30254 12.4751L8.82889 12.6161L8.00846 15.678L7.50757 15.5438L7.67167 14.8295ZM7.9436 14.2109L8.16301 14.2636C8.10842 14.4673 8.03617 14.6502 7.94627 14.8121C7.85877 14.9727 7.75092 15.1035 7.62272 15.2046C7.49452 15.3058 7.34441 15.3717 7.17239 15.4024C7.00087 15.4313 6.80569 15.4164 6.58685 15.3578C6.43781 15.3178 6.30685 15.2595 6.19396 15.1827C6.08296 15.1065 5.99526 15.0112 5.93085 14.8969C5.86645 14.7826 5.82918 14.6462 5.81906 14.4878C5.81081 14.3299 5.83399 14.1491 5.88859 13.9453L6.41785 11.9701L6.94138 12.1104L6.41059 14.0913C6.37369 14.229 6.3582 14.3472 6.36412 14.4458C6.37244 14.5431 6.39593 14.6252 6.4346 14.6922C6.47566 14.7578 6.52642 14.8098 6.58689 14.8482C6.64925 14.8872 6.71627 14.9163 6.78796 14.9355C7.01058 14.9951 7.19835 14.9999 7.35127 14.9499C7.5047 14.898 7.62917 14.807 7.72469 14.6769C7.8226 14.5454 7.89557 14.3901 7.9436 14.2109ZM9.97528 13.6239L9.33 16.0321L8.80648 15.8919L9.62691 12.8299L10.1221 12.9626L9.97528 13.6239ZM9.64679 14.3518L9.43117 14.2849C9.48917 14.076 9.57211 13.891 9.68 13.7298C9.78839 13.5668 9.91499 13.4339 10.0598 13.3311C10.2046 13.2284 10.3621 13.1614 10.5322 13.1301C10.7047 13.0975 10.8834 13.106 11.0683 13.1555C11.2193 13.1959 11.3495 13.2531 11.4591 13.327C11.5693 13.3989 11.6549 13.4906 11.716 13.602C11.7791 13.714 11.8143 13.8467 11.8216 14.0004C11.8295 14.1521 11.8064 14.3289 11.7523 14.5308L11.2147 16.5371L10.6883 16.3961L11.2275 14.3841C11.2704 14.2237 11.2812 14.0891 11.2598 13.9802C11.239 13.8695 11.1891 13.7803 11.1101 13.7127C11.0317 13.6431 10.9265 13.5906 10.7944 13.5553C10.6642 13.5204 10.538 13.5159 10.4158 13.5418C10.2955 13.5682 10.1838 13.6191 10.0807 13.6946C9.97944 13.7706 9.89045 13.8651 9.81369 13.9779C9.73933 14.0895 9.6837 14.2141 9.64679 14.3518ZM13.2653 17.1473C13.0521 17.0901 12.8684 17.0025 12.714 16.8843C12.5621 16.7647 12.4415 16.6222 12.3524 16.4568C12.2651 16.2919 12.2128 16.11 12.1953 15.9112C12.1778 15.7124 12.1978 15.5055 12.2555 15.2904L12.2873 15.1715C12.354 14.9225 12.4502 14.7107 12.5759 14.5361C12.702 14.3596 12.8465 14.2204 13.0093 14.1184C13.1721 14.0164 13.343 13.952 13.5221 13.9252C13.7011 13.8984 13.8765 13.908 14.0482 13.954C14.267 14.0126 14.4456 14.1009 14.5838 14.2188C14.724 14.3372 14.8268 14.478 14.8922 14.6411C14.9582 14.8024 14.9912 14.9811 14.9912 15.1772C14.9918 15.3715 14.9632 15.5761 14.9056 15.7912L14.8426 16.0261L12.5561 15.4134L12.6706 14.9861L14.4336 15.4585L14.4442 15.4189C14.4731 15.281 14.4802 15.1414 14.4655 15C14.4527 14.859 14.4056 14.7332 14.324 14.6223C14.2425 14.5115 14.1121 14.4321 13.9329 14.3841C13.8141 14.3522 13.6978 14.3484 13.5842 14.3725C13.471 14.3948 13.3655 14.4454 13.2675 14.5243C13.1695 14.6032 13.0818 14.708 13.0043 14.8389C12.9267 14.9698 12.8632 15.1277 12.8137 15.3126L12.7818 15.4314C12.7429 15.5767 12.726 15.7188 12.7313 15.8577C12.7389 15.9952 12.7685 16.1224 12.8201 16.2394C12.8735 16.3568 12.9486 16.4578 13.0452 16.5423C13.1438 16.6274 13.2647 16.6891 13.4081 16.7275C13.593 16.7771 13.7597 16.7813 13.9082 16.7402C14.0567 16.6991 14.196 16.6283 14.3261 16.5276L14.5756 16.8644C14.4827 16.9467 14.3732 17.0195 14.2471 17.0828C14.121 17.146 13.9758 17.186 13.8116 17.2026C13.6493 17.2198 13.4672 17.2013 13.2653 17.1473Z" fill="white"/>
</g>
</g>
</g>
</g>
<defs>
<filter id="filter0_i_6_97" x="0.202041" y="-0.297958" width="20.0959" height="20.0959" filterUnits="userSpaceOnUse" color-interpolation-filters="sRGB">
<feFlood flood-opacity="0" result="BackgroundImageFix"/>
<feBlend mode="normal" in="SourceGraphic" in2="BackgroundImageFix" result="shape"/>
<feColorMatrix in="SourceAlpha" type="matrix" values="0 0 0 0 0 0 0 0 0 0 0 0 0 0 0 0 0 0 127 0" result="hardAlpha"/>
<feOffset dx="0.5" dy="-0.5"/>
<feGaussianBlur stdDeviation="0.25"/>
<feComposite in2="hardAlpha" operator="arithmetic" k2="-1" k3="1"/>
<feColorMatrix type="matrix" values="0 0 0 0 0 0 0 0 0 0 0 0 0 0 0 0 0 0 0.05 0"/>
<feBlend mode="normal" in2="shape" result="effect1_innerShadow_6_97"/>
</filter>
<filter id="filter1_di_6_97" x="11.7372" y="4.56225" width="6.24645" height="5.96956" filterUnits="userSpaceOnUse" color-interpolation-filters="sRGB">
<feFlood flood-opacity="0" result="BackgroundImageFix"/>
<feColorMatrix in="SourceAlpha" type="matrix" values="0 0 0 0 0 0 0 0 0 0 0 0 0 0 0 0 0 0 127 0" result="hardAlpha"/>
<feOffset dx="-0.5" dy="0.5"/>
<feGaussianBlur stdDeviation="0.75"/>
<feComposite in2="hardAlpha" operator="out"/>
<feColorMatrix type="matrix" values="0 0 0 0 0 0 0 0 0 0 0 0 0 0 0 0 0 0 0.15 0"/>
<feBlend mode="normal" in2="BackgroundImageFix" result="effect1_dropShadow_6_97"/>
<feBlend mode="normal" in="SourceGraphic" in2="effect1_dropShadow_6_97" result="shape"/>
<feColorMatrix in="SourceAlpha" type="matrix" values="0 0 0 0 0 0 0 0 0 0 0 0 0 0 0 0 0 0 127 0" result="hardAlpha"/>
<feOffset dx="0.25" dy="-0.25"/>
<feGaussianBlur stdDeviation="0.375"/>
<feComposite in2="hardAlpha" operator="arithmetic" k2="-1" k3="1"/>
<feColorMatrix type="matrix" values="0 0 0 0 0 0 0 0 0 0 0 0 0 0 0 0 0 0 0.15 0"/>
<feBlend mode="normal" in2="shape" result="effect2_innerShadow_6_97"/>
</filter>
<filter id="filter2_di_6_97" x="0.673153" y="9.13222" width="15.9027" height="10.3343" filterUnits="userSpaceOnUse" color-interpolation-filters="sRGB">
<feFlood flood-opacity="0" result="BackgroundImageFix"/>
<feColorMatrix in="SourceAlpha" type="matrix" values="0 0 0 0 0 0 0 0 0 0 0 0 0 0 0 0 0 0 127 0" result="hardAlpha"/>
<feOffset dx="-0.5" dy="0.5"/>
<feGaussianBlur stdDeviation="0.75"/>
<feComposite in2="hardAlpha" operator="out"/>
<feColorMatrix type="matrix" values="0 0 0 0 0 0 0 0 0 0 0 0 0 0 0 0 0 0 0.15 0"/>
<feBlend mode="normal" in2="BackgroundImageFix" result="effect1_dropShadow_6_97"/>
<feBlend mode="normal" in="SourceGraphic" in2="effect1_dropShadow_6_97" result="shape"/>
<feColorMatrix in="SourceAlpha" type="matrix" values="0 0 0 0 0 0 0 0 0 0 0 0 0 0 0 0 0 0 127 0" result="hardAlpha"/>
<feOffset dx="0.25" dy="-0.25"/>
<feGaussianBlur stdDeviation="0.375"/>
<feComposite in2="hardAlpha" operator="arithmetic" k2="-1" k3="1"/>
<feColorMatrix type="matrix" values="0 0 0 0 0 0 0 0 0 0 0 0 0 0 0 0 0 0 0.15 0"/>
<feBlend mode="normal" in2="shape" result="effect2_innerShadow_6_97"/>
</filter>
<linearGradient id="paint0_linear_6_97" x1="12.3431" y1="0.202042" x2="12.3431" y2="16.202" gradientUnits="userSpaceOnUse">
<stop stop-color="#E168FF"/>
<stop offset="1" stop-color="#C848E9"/>
</linearGradient>
<linearGradient id="paint1_linear_6_97" x1="10" y1="-0.125" x2="10" y2="20.125" gradientUnits="userSpaceOnUse">
<stop stop-color="white" stop-opacity="0.5"/>
<stop offset="1" stop-color="white"/>
</linearGradient>
<clipPath id="clip0_6_97">
<rect width="20" height="20" fill="white"/>
</clipPath>
<clipPath id="clip1_6_97">
<rect x="4.34315" y="0.202042" width="16" height="16" rx="1" transform="rotate(15 4.34315 0.202042)" fill="white"/>
</clipPath>
</defs>
</svg>
